<svg width="24" height="24" viewBox="0 0 24 24" fill="none" xmlns="http://www.w3.org/2000/svg">
<path fill-rule="evenodd" clip-rule="evenodd" d="M17.9999 3L6 3.00002C4.34315 3.00002 3 4.34317 3 6.00002V16.0358C3 17.6926 4.34315 19.0358 6 19.0358H8.64962L11.3533 21.3021C11.7232 21.6123 12.2619 21.6138 12.6337 21.3058L15.3737 19.0358H18.0001C19.6569 19.0357 21.0001 17.6926 21.0001 16.0358V6C21.0001 4.34314 19.6568 3 17.9999 3ZM11.9978 14.75C12.55 14.75 12.9978 14.3023 12.9978 13.75V11.75C12.9978 11.1977 12.55 10.75 11.9978 10.75C11.4455 10.75 10.9978 11.1977 10.9978 11.75V13.75C10.9978 14.3023 11.4455 14.75 11.9978 14.75ZM11.9978 10C11.3074 10 10.7478 9.44036 10.7478 8.75C10.7478 8.05964 11.3074 7.5 11.9978 7.5C12.6881 7.5 13.2478 8.05964 13.2478 8.75C13.2478 9.44036 12.6881 10 11.9978 10Z" fill="url(#paint0_linear_2332_1583)"/>
<defs>
<linearGradient id="paint0_linear_2332_1583" x1="3" y1="3" x2="22.5057" y2="4.74964" gradientUnits="userSpaceOnUse">
<stop stop-color="#00C7BE"/>
<stop offset="1" stop-color="#0097C7"/>
</linearGradient>
</defs>
</svg>
