<svg width="24" height="24" viewBox="0 0 24 24" fill="none" xmlns="http://www.w3.org/2000/svg">
<path fill-rule="evenodd" clip-rule="evenodd" d="M22 6C22 5.44772 21.5523 5 21 5H3C2.4477 5 2 5.44772 2 6C2 6.55228 2.4477 7 3 7H21C21.5523 7 22 6.55228 22 6ZM22 12C22 11.4477 21.5523 11 21 11H3C2.4477 11 2 11.4477 2 12C2 12.5523 2.4477 13 3 13H21C21.5523 13 22 12.5523 22 12ZM22 18C22 17.4477 21.5523 17 21 17H13C12.4477 17 12 17.4477 12 18C12 18.5523 12.4477 19 13 19H21C21.5523 19 22 18.5523 22 18Z" fill="white"/>
</svg>
