<svg width="24" height="24" viewBox="0 0 24 24" fill="none" xmlns="http://www.w3.org/2000/svg">
<path fill-rule="evenodd" clip-rule="evenodd" d="M4.4156 2.02129C4.0833 2.04402 4.02279 2.06035 3.93395 2.15118C3.87808 2.20832 3.71564 2.41716 3.573 2.61532C3.43035 2.81344 2.72681 3.78576 2.00952 4.77603C1.29227 5.76625 0.546779 6.79151 0.352842 7.05433C0.158946 7.31714 0.000165329 7.56375 6.6168e-07 7.60236C-0.000205173 7.6533 0.0475896 7.67943 0.174672 7.69776C0.27092 7.71168 1.84419 7.7175 3.67085 7.71068C6.97149 7.69847 6.99281 7.69784 7.10828 7.61108C7.17222 7.56309 7.58574 7.02898 8.02725 6.42423C8.46877 5.81948 9.3229 4.6527 9.92529 3.83142C10.0623 3.64469 11.1292 2.14786 11.061 2.07913C10.9929 2.01041 10.7928 2.00542 7.89198 2.00052C6.18903 1.99765 4.62465 2.007 4.4156 2.02129ZM13.3378 2.0232C12.9051 2.04523 12.8633 2.05445 12.8526 2.13041C12.845 2.18401 13.0643 2.51859 13.4701 3.07248C13.8162 3.54488 14.3305 4.24607 14.6131 4.63068C14.8956 5.01524 15.5036 5.83963 15.9641 6.46262C16.4791 7.1592 16.8472 7.61918 16.9201 7.65725C17.0223 7.7106 17.5045 7.71916 20.4137 7.71916C22.507 7.71916 23.8289 7.70378 23.8944 7.67864C23.9525 7.65633 24 7.61748 24 7.59226C24 7.56699 23.67 7.09442 23.2667 6.54203C22.8634 5.98964 22.2173 5.09826 21.831 4.5612C21.4447 4.02414 20.884 3.25751 20.5851 2.85757C20.2861 2.45763 19.992 2.10236 19.9316 2.06808C19.8367 2.01435 19.4071 2.0053 16.8164 2.00243C15.1635 2.00064 13.5982 2.00999 13.3378 2.0232ZM11.8006 3.9501C11.7235 4.04625 11.3673 4.52692 11.009 5.01828C10.6506 5.50963 10.1107 6.25757 9.80908 6.68036C9.50749 7.10315 9.24958 7.49199 9.23595 7.54452C9.22233 7.597 9.22422 7.65309 9.24015 7.66917C9.25608 7.68521 10.498 7.69838 11.9999 7.69838C13.5017 7.69838 14.7452 7.68363 14.7631 7.6656C14.781 7.64752 14.7633 7.57273 14.724 7.49939C14.6846 7.42601 14.4646 7.10419 14.2351 6.78424C14.0056 6.46429 13.6228 5.93138 13.3844 5.6C13.146 5.26863 12.7498 4.73265 12.504 4.40896C12.2582 4.08527 12.0309 3.81027 11.9989 3.79785C11.9807 3.79081 11.9512 3.80323 11.9153 3.83142C11.8815 3.85799 11.8419 3.89857 11.8006 3.9501ZM0.792175 9.34098C0.739728 9.36225 0.699549 9.41436 0.699549 9.46106C0.699549 9.50644 0.918351 9.83894 1.18577 10.1999C1.45315 10.561 2.23717 11.5949 2.92804 12.4976C3.61886 13.4004 4.53601 14.5971 4.96617 15.157C5.39632 15.7169 6.08043 16.6053 6.48638 17.1313C6.89236 17.6572 7.85435 18.909 8.62417 19.9131C9.39399 20.9171 10.0811 21.8033 10.151 21.8824C10.2255 21.9666 10.298 22.0138 10.326 21.9964C10.3523 21.98 10.3738 21.9147 10.3738 21.8513C10.3738 21.7878 10.2435 21.2513 10.0843 20.6591C9.92517 20.0668 9.62976 18.9746 9.42791 18.2318C9.22607 17.4891 8.91074 16.3017 8.72717 15.5933C8.54361 14.8848 8.12395 13.258 7.79458 11.9782C7.4652 10.6984 7.16423 9.59523 7.12574 9.52667C7.08482 9.45375 6.99681 9.38145 6.91373 9.3524C6.8088 9.3158 6.00262 9.30291 3.82823 9.30312C2.16987 9.30329 0.844374 9.31983 0.792175 9.34098ZM8.91654 9.33433C8.82828 9.3487 8.7368 9.3915 8.71322 9.42948C8.68123 9.48105 8.71972 9.69101 8.86566 10.2605C8.97306 10.6796 9.30087 11.9201 9.59415 13.017C9.88742 14.114 10.2666 15.5164 10.4367 16.1334C10.6069 16.7505 10.9949 18.1724 11.299 19.2933C11.6031 20.4142 11.864 21.3631 11.8788 21.4021C11.8936 21.441 11.9319 21.4729 11.964 21.4729C11.996 21.4729 12.0404 21.4308 12.0627 21.3794C12.0849 21.328 12.3636 20.3229 12.6818 19.146C13.0001 17.969 13.4712 16.2301 13.7288 15.2816C13.9864 14.3332 14.3823 12.8747 14.6087 12.0406C14.835 11.2064 15.0795 10.2842 15.1522 9.99114C15.2758 9.49252 15.2799 9.45387 15.2153 9.38864C15.152 9.32473 14.8927 9.31846 12.1116 9.31355C10.4426 9.3106 9.0048 9.31995 8.91654 9.33433ZM17.0222 9.35714C16.9543 9.38781 16.8778 9.44864 16.8522 9.49231C16.8267 9.53598 16.5709 10.4778 16.2838 11.5852C15.9967 12.6927 15.5014 14.5898 15.183 15.801C14.8647 17.0123 14.4199 18.6858 14.1947 19.5199C13.9695 20.3541 13.7389 21.2104 13.6823 21.4228C13.6258 21.6351 13.5854 21.8502 13.5924 21.9006C13.5996 21.951 13.6316 21.9923 13.6637 21.9923C13.6958 21.9923 14.3071 21.2329 15.0222 20.3048C15.7373 19.3767 16.9878 17.7499 17.8012 16.6898C18.6145 15.6296 19.653 14.2761 20.1089 13.6819C20.5648 13.0877 21.397 11.9978 21.9582 11.2599C22.5193 10.522 23.0416 9.82365 23.1187 9.70792C23.1959 9.5922 23.259 9.47224 23.259 9.44137C23.259 9.41045 23.1895 9.36566 23.1046 9.34189C23.0041 9.31368 21.9378 9.29909 20.048 9.30001C17.7114 9.30113 17.1216 9.31226 17.0222 9.35714Z" fill="url(#paint0_linear_2332_1412)"/>
<defs>
<linearGradient id="paint0_linear_2332_1412" x1="0" y1="2" x2="25.8986" y2="4.87066" gradientUnits="userSpaceOnUse">
<stop stop-color="#00C7BE"/>
<stop offset="1" stop-color="#0097C7"/>
</linearGradient>
</defs>
</svg>
