<svg width="24" height="24" viewBox="0 0 24 24" fill="none" xmlns="http://www.w3.org/2000/svg">
<path fill-rule="evenodd" clip-rule="evenodd" d="M11.1672 2.32545C11.1672 2.57858 10.962 2.78378 10.7088 2.78378H9.84173C9.5886 2.78378 9.38339 2.98899 9.38339 3.24212V3.99032C9.38339 4.24345 9.5886 4.44865 9.84173 4.44865H10.2158C10.7211 4.44865 11.0483 4.498 11.0483 4.57423C11.0483 4.64344 10.774 5.32568 10.4389 6.09044C10.1038 6.85533 9.75287 7.66077 9.65905 7.88041C9.56522 8.10005 9.46854 8.25988 9.44428 8.23574C9.42014 8.21148 9.47591 7.79455 9.56843 7.30936C9.66083 6.82405 9.71541 6.40594 9.68973 6.38025C9.66404 6.35444 9.60922 6.43983 9.56796 6.56981C9.49494 6.7998 9.46521 6.79646 8.45951 6.44577C7.59402 6.14396 7.30386 6.0952 6.67406 6.14574C6.15986 6.18701 5.67645 6.32697 5.14584 6.58824C4.69811 6.80859 4.09114 7.24871 3.71167 7.6283C3.28785 8.05201 2.91182 8.58738 2.6552 9.13227C2.43603 9.5976 2.20021 10.34 2.13112 10.782C2.04681 11.3214 2.04372 11.8225 2.12149 12.3054C2.18523 12.7011 2.36634 13.3028 2.52415 13.6423C2.68184 13.9817 3.08842 14.5734 3.42758 14.9572C3.76673 15.3408 4.32934 16.0097 4.67777 16.4436C5.02632 16.8775 5.50343 17.5347 5.73793 17.9042L5.89001 18.1437C6.03644 18.3743 5.94993 18.681 5.70457 18.8011L5.52983 18.8866C5.1167 19.0886 4.77552 19.3694 4.55279 19.6906C4.23028 20.1553 4.20816 20.2659 4.1707 21.592L4.14435 22.5288C4.1371 22.7869 4.34433 23 4.60251 23H19.3967C19.6549 23 19.8621 22.7869 19.8549 22.5288L19.8285 21.592C19.7911 20.2659 19.7689 20.1553 19.4464 19.6906C19.2223 19.3673 18.8823 19.0885 18.461 18.8824C17.9124 18.614 17.7135 18.5772 17.1087 18.6321C16.7187 18.6674 16.3996 18.6576 16.3996 18.6102C16.3996 18.5628 16.9443 18.3955 17.6098 18.2382C18.4228 18.0464 18.7314 17.9317 18.5498 17.8887C18.2869 17.8267 18.294 17.805 18.8039 17.1124C19.0924 16.7205 19.746 15.9183 20.2565 15.3297C20.7669 14.7411 21.3145 13.9817 21.4733 13.6423C21.632 13.3028 21.814 12.7011 21.8777 12.3054C21.9555 11.8225 21.9524 11.3214 21.8681 10.782C21.799 10.34 21.5632 9.5976 21.344 9.13227C21.0874 8.58738 20.7114 8.05201 20.2875 7.6283C19.9081 7.24871 19.3011 6.80859 18.8534 6.58824C18.3197 6.32543 17.8432 6.18796 17.3277 6.148C16.6883 6.09853 16.3908 6.153 15.306 6.51796C14.6064 6.75342 14.0121 6.94595 13.9852 6.94595C13.9583 6.94595 13.7145 6.44244 13.4436 5.82704C13.1726 5.21163 12.951 4.64974 12.951 4.57839C12.951 4.49705 13.2616 4.44865 13.7834 4.44865H14.1575C14.4106 4.44865 14.6158 4.24345 14.6158 3.99032V3.24212C14.6158 2.98899 14.4106 2.78378 14.1575 2.78378H13.2904C13.0372 2.78378 12.832 2.57858 12.832 2.32545V1.45833C12.832 1.2052 12.6268 1 12.3737 1H11.6255C11.3724 1 11.1672 1.2052 11.1672 1.45833V2.32545ZM9.01546 10.5078C9.26578 10.6355 9.63824 10.8811 9.84313 11.0535L10.0526 11.2298C10.1561 11.3168 10.2158 11.4452 10.2158 11.5805V14.5741C10.2158 14.8272 10.0106 15.0324 9.75749 15.0324H8.5407C8.41548 15.0324 8.29571 14.9812 8.20923 14.8906L7.46452 14.1108C6.866 13.484 6.53754 13.0326 6.43789 12.6997C6.35738 12.4305 6.2915 12.0505 6.2915 11.8553C6.2915 11.6601 6.35203 11.3268 6.426 11.1146C6.49997 10.9025 6.72734 10.6272 6.9314 10.5028C7.17209 10.3559 7.52303 10.2764 7.93139 10.2762C8.32145 10.2758 8.73338 10.3639 9.01546 10.5078ZM17.0094 10.4619C17.2098 10.5655 17.4448 10.8278 17.5387 11.0527C17.6316 11.2752 17.7077 11.6267 17.7077 11.8338C17.7077 12.0408 17.6418 12.4305 17.5613 12.6997C17.4617 13.0326 17.1332 13.484 16.5347 14.1108L15.79 14.8906C15.7035 14.9812 15.5837 15.0324 15.4585 15.0324H14.2417C13.9886 15.0324 13.7834 14.8272 13.7834 14.5741V13.2099C13.7834 11.4732 13.796 11.3757 14.051 11.1377C14.1982 11.0004 14.5593 10.7509 14.8537 10.5832C15.2407 10.3628 15.5631 10.2782 16.0191 10.2771C16.3656 10.2763 16.8113 10.3595 17.0094 10.4619Z" fill="url(#paint0_linear_2332_1390)"/>
<defs>
<linearGradient id="paint0_linear_2332_1390" x1="2.06543" y1="1" x2="23.619" y2="2.79797" gradientUnits="userSpaceOnUse">
<stop stop-color="#00C7BE"/>
<stop offset="1" stop-color="#0097C7"/>
</linearGradient>
</defs>
</svg>
