<svg width="24" height="24" viewBox="0 0 24 24" fill="none" xmlns="http://www.w3.org/2000/svg">
<path fill-rule="evenodd" clip-rule="evenodd" d="M1.99995 6C1.99995 4.34315 3.34315 3 4.99995 3H19C20.6569 3 22 4.34315 22 6V16C22 17.6569 20.6569 19 19 19H18V21C18 21.3603 17.8062 21.6927 17.4927 21.8702C17.1792 22.0477 16.7944 22.0429 16.4855 21.8575L11.7231 19H4.99995C3.34315 19 1.99995 17.6569 1.99995 16V6ZM17.7522 11C17.7522 11.6904 17.1925 12.25 16.5022 12.25C15.8118 12.25 15.2522 11.6904 15.2522 11C15.2522 10.3096 15.8118 9.75 16.5022 9.75C17.1925 9.75 17.7522 10.3096 17.7522 11ZM13.2522 11C13.2522 11.6904 12.6926 12.25 12.0022 12.25C11.3119 12.25 10.7522 11.6904 10.7522 11C10.7522 10.3096 11.3119 9.75 12.0022 9.75C12.6926 9.75 13.2522 10.3096 13.2522 11ZM7.50215 12.25C8.19255 12.25 8.75215 11.6904 8.75215 11C8.75215 10.3096 8.19255 9.75 7.50215 9.75C6.81185 9.75 6.25215 10.3096 6.25215 11C6.25215 11.6904 6.81185 12.25 7.50215 12.25Z" fill="url(#paint0_linear_2332_1394)"/>
<defs>
<linearGradient id="paint0_linear_2332_1394" x1="22" y1="3" x2="0.357182" y2="5.10433" gradientUnits="userSpaceOnUse">
<stop stop-color="#00C7BE"/>
<stop offset="1" stop-color="#0097C7"/>
</linearGradient>
</defs>
</svg>
