<svg width="24" height="24" viewBox="0 0 24 24" fill="none" xmlns="http://www.w3.org/2000/svg">
<path fill-rule="evenodd" clip-rule="evenodd" d="M7.52966 2.14993C7.26194 2.24565 6.84314 2.44108 6.59903 2.58423C6.35491 2.72738 5.99019 3.02738 5.78841 3.2509C5.58664 3.47441 5.29115 3.93612 5.1319 4.27674C4.9177 4.73476 4.82865 5.09375 4.7903 5.65419C4.75214 6.21133 4.78282 6.56488 4.90604 6.98908C4.99819 7.30647 5.17657 7.74194 5.30251 7.9569C5.42836 8.17187 5.68626 8.49811 5.87571 8.68178C6.06506 8.86555 6.22003 9.05097 6.22003 9.09393C6.22003 9.13688 5.96873 9.17303 5.6617 9.1742C5.27989 9.17566 5.03791 9.2295 4.89624 9.34427C4.78234 9.43669 4.64028 9.60772 4.58065 9.72444C4.52103 9.84125 4.47219 10.0518 4.47219 10.1925C4.47219 10.3331 4.52103 10.5437 4.58065 10.6605C4.64028 10.7772 4.78234 10.9482 4.89624 11.0407C5.02092 11.1416 5.27319 11.2094 5.52983 11.2107L5.9563 11.2129L5.9027 12.5005C5.86163 13.4867 5.78997 13.9886 5.59644 14.6441C5.45739 15.1149 5.2294 15.7271 5.08967 16.0046C4.95003 16.2821 4.75389 16.6253 4.65397 16.7672C4.54871 16.9165 4.47219 17.1908 4.47219 17.4186C4.47219 17.635 4.42364 17.9186 4.36441 18.0489C4.30508 18.1791 4.1501 18.3342 4.01999 18.3936C3.88977 18.4529 3.55477 18.5015 3.2754 18.5015C2.97293 18.5015 2.68026 18.5626 2.5518 18.6528C2.34361 18.7987 2.33594 18.8608 2.33594 20.402V22H7.55412H12.7723L11.1469 20.3711C9.72203 18.9434 9.52152 18.704 9.52152 18.4313C9.52152 18.2366 9.60095 18.0463 9.73407 17.9222C9.85089 17.8132 10.0781 17.724 10.2389 17.724C10.4901 17.724 10.8328 18.0247 12.6752 19.862C14.6113 21.7928 14.8506 22 15.1435 22C15.4132 22 15.5828 21.8878 16.1522 21.3325C16.7129 20.7854 16.8365 20.6097 16.8365 20.3599C16.8365 20.1886 16.7495 19.9592 16.6383 19.8369C16.5293 19.7171 16.3844 19.5114 16.3164 19.3798C16.2027 19.1597 16.2709 18.9885 17.1696 17.2418L18.1465 15.3431L18.5789 15.375C18.9557 15.4028 19.0389 15.372 19.2242 15.1363C19.3601 14.9633 19.4176 14.7884 19.3833 14.6517C19.3538 14.5341 19.3073 14.3791 19.2799 14.3074C19.2418 14.2074 19.3723 14.1745 19.8379 14.1665C20.1721 14.1608 20.6017 14.0897 20.7925 14.0086C20.9833 13.9274 21.307 13.7138 21.5118 13.5338C21.7167 13.3538 21.9862 12.9875 22.1108 12.7199C22.2754 12.3658 22.3368 12.0612 22.3359 11.6016C22.3352 11.1761 22.2702 10.8272 22.137 10.5326C22.0282 10.2921 21.8216 9.97099 21.6779 9.819C21.5342 9.66701 21.1981 9.43027 20.9311 9.29286C20.5738 9.10899 20.2916 9.04184 19.8629 9.03844C19.5425 9.03601 19.1092 9.09266 18.9001 9.16448C18.6909 9.2362 18.3268 9.47303 18.0908 9.69072C17.8548 9.9084 17.5697 10.2634 17.4571 10.4796C17.3108 10.761 17.251 11.0594 17.2469 11.5292C17.2421 12.0746 17.2165 12.1751 17.0955 12.1229C17.0154 12.0883 16.839 12.0408 16.7034 12.0171C16.5539 11.9912 16.3691 12.0456 16.2332 12.1557C16.1101 12.2554 16.0049 12.4449 15.9991 12.5767C15.9935 12.7085 16.0186 12.9038 16.0551 13.0107C16.1136 13.1822 15.9132 13.3136 14.3508 14.1283C13.377 14.6361 12.4411 15.0649 12.271 15.0813C12.0508 15.1026 11.9353 15.0606 11.8696 14.9355C11.8191 14.839 11.7288 14.3923 11.6691 13.9428C11.6095 13.4933 11.5607 12.6953 11.5607 12.1692V11.2129L11.9734 11.2107C12.2169 11.2095 12.4709 11.1397 12.5932 11.0407C12.7071 10.9482 12.8491 10.7772 12.9087 10.6605C12.9684 10.5437 13.0172 10.3331 13.0172 10.1925C13.0172 10.0518 12.9684 9.84125 12.9087 9.72444C12.8491 9.60772 12.7071 9.43669 12.5932 9.34427C12.4515 9.2295 12.2095 9.17566 11.8277 9.1742C11.5207 9.17303 11.2694 9.13688 11.2694 9.09393C11.2694 9.05097 11.4243 8.86555 11.6137 8.68178C11.8031 8.49811 12.061 8.17187 12.1869 7.9569C12.3128 7.74194 12.4912 7.30647 12.5834 6.98908C12.7066 6.56488 12.7373 6.21133 12.6991 5.65419C12.6606 5.09336 12.5726 4.73826 12.3602 4.28879C12.2024 3.95468 11.8896 3.47461 11.665 3.22184C11.3957 2.91883 11.0072 2.63904 10.5236 2.39988C9.86575 2.07442 9.69951 2.03409 8.90346 2.00659C8.23578 1.98346 7.89602 2.01893 7.52966 2.14993Z" fill="url(#paint0_linear_2332_1386)"/>
<defs>
<linearGradient id="paint0_linear_2332_1386" x1="2.33594" y1="2" x2="23.9985" y2="4.00093" gradientUnits="userSpaceOnUse">
<stop stop-color="#00C7BE"/>
<stop offset="1" stop-color="#0097C7"/>
</linearGradient>
</defs>
</svg>
