<svg width="24" height="24" viewBox="0 0 24 24" fill="none" xmlns="http://www.w3.org/2000/svg">
<g clip-path="url(#clip0_2332_1378)">
<path fill-rule="evenodd" clip-rule="evenodd" d="M6.22967 5.86423C2.60665 9.02919 0.600783 10.8712 0.487933 11.137C0.392118 11.363 0.351929 11.7151 0.397974 11.9249C0.443752 12.1336 0.661067 12.4557 0.88091 12.6406C1.21759 12.924 1.41535 12.9769 2.13543 12.9769H2.99018L2.99098 16.4036C2.99138 18.3841 3.05059 20.0425 3.13124 20.333C3.20802 20.6095 3.45648 21.0472 3.68351 21.3057C3.9104 21.5642 4.32401 21.8919 4.6024 22.034C5.08547 22.2805 5.44531 22.2923 12.4124 22.2923H19.7159L20.3025 21.9826C20.6251 21.8124 21.0687 21.4181 21.2882 21.1065L21.6875 20.5399L21.7266 16.7584L21.7657 12.9769H22.6146C23.3314 12.9769 23.5266 12.9238 23.8685 12.6362C24.1059 12.4364 24.3078 12.1123 24.3565 11.8526C24.4073 11.582 24.3702 11.2831 24.2612 11.0844C24.1631 10.9056 23.3044 10.0738 22.3529 9.23613C21.4014 8.39841 18.902 6.20251 16.7989 4.35647C13.0347 1.05257 12.9656 1 12.3865 1C11.8029 1 11.752 1.04032 6.22967 5.86423Z" fill="url(#paint0_linear_2332_1378)"/>
</g>
<defs>
<linearGradient id="paint0_linear_2332_1378" x1="0.378906" y1="1" x2="26.3146" y2="3.70029" gradientUnits="userSpaceOnUse">
<stop stop-color="#00C7BE"/>
<stop offset="1" stop-color="#0097C7"/>
</linearGradient>
<clipPath id="clip0_2332_1378">
<rect width="24" height="24" fill="white"/>
</clipPath>
</defs>
</svg>
