<svg width="666" height="1335" viewBox="0 0 666 1335" fill="none" xmlns="http://www.w3.org/2000/svg">
<path opacity="0.2" d="M128.407 1.31167C120.847 -0.861161 112.957 3.50588 110.784 11.0657C108.611 18.6256 112.978 26.5155 120.538 28.6883L124.472 15L128.407 1.31167ZM151.466 22.7583L147.531 36.4466L147.531 36.4466L151.466 22.7583ZM153.527 323.294L157.648 336.927L157.648 336.927L153.527 323.294ZM120.906 333.156L116.784 319.523L116.784 319.523L120.906 333.156ZM125.457 619.459L129.143 605.702L129.143 605.702L125.457 619.459ZM141.563 623.775L137.877 637.532L137.877 637.532L141.563 623.775ZM141.564 1181.71L145.25 1167.96L145.25 1167.96L141.564 1181.71ZM141.563 902.744L145.25 916.501L141.563 902.744ZM124.472 15L120.538 28.6883L127.286 30.6279L131.221 16.9396L135.155 3.25125L128.407 1.31167L124.472 15ZM144.717 20.8187L140.783 34.5071L147.531 36.4466L151.466 22.7583L155.4 9.06998L148.652 7.1304L144.717 20.8187ZM151.466 22.7583L147.531 36.4466C149.215 36.9306 150.877 37.4371 152.516 37.9656L156.886 24.4098L161.255 10.854C159.325 10.2321 157.373 9.63722 155.4 9.06998L151.466 22.7583ZM167.406 28.1803L162.162 41.4226C165.374 42.6943 168.493 44.0548 171.521 45.4986L177.652 32.6431L183.782 19.7877C180.168 18.0642 176.457 16.4459 172.649 14.9381L167.406 28.1803ZM187.611 37.8304L180.587 50.2203C183.574 51.9139 186.463 53.6945 189.253 55.5562L197.158 43.7087L205.062 31.8612C201.698 29.6162 198.222 27.4738 194.635 25.4405L187.611 37.8304ZM206.24 50.2656L197.48 61.4957C200.166 63.5908 202.749 65.7678 205.229 68.0205L214.805 57.4781L224.381 46.9356C221.376 44.2058 218.249 41.5698 214.999 39.0354L206.24 50.2656ZM222.803 65.3134L212.46 75.1046C214.793 77.569 217.019 80.1079 219.139 82.7145L230.189 73.7297L241.24 64.7448C238.673 61.587 235.975 58.5099 233.147 55.5222L222.803 65.3134ZM236.924 82.678L225.231 90.8107C227.168 93.5949 228.995 96.4432 230.711 99.3487L242.974 92.1044L255.236 84.8601C253.165 81.3539 250.958 77.9127 248.616 74.5453L236.924 82.678ZM248.315 101.954L235.556 108.282C237.065 111.325 238.461 114.419 239.745 117.558L252.927 112.166L266.11 106.774C264.569 103.007 262.891 99.2881 261.075 95.6259L248.315 101.954ZM256.797 122.68L243.265 127.123C244.326 130.356 245.273 133.626 246.106 136.925L259.915 133.441L273.725 129.958C272.732 126.018 271.6 122.108 270.329 118.238L256.797 122.68ZM262.277 144.393L248.259 146.913C248.862 150.268 249.35 153.644 249.721 157.034L263.879 155.482L278.037 153.93C277.594 149.895 277.014 145.873 276.295 141.874L262.277 144.393ZM264.719 166.654L250.488 167.237C250.628 170.646 250.651 174.06 250.558 177.471L264.796 177.858L279.033 178.245C279.143 174.188 279.115 170.127 278.949 166.072L264.719 166.654ZM264.109 189.041L249.931 187.683C249.606 191.078 249.165 194.46 248.608 197.824L262.66 200.15L276.711 202.477C277.375 198.468 277.9 194.439 278.287 190.398L264.109 189.041ZM260.448 211.134L246.592 207.84C245.805 211.15 244.903 214.433 243.886 217.68L257.478 221.936L271.069 226.193C272.287 222.305 273.365 218.381 274.305 214.427L260.448 211.134ZM253.753 232.503L240.498 227.293C239.257 230.448 237.903 233.562 236.436 236.625L249.281 242.777L262.126 248.93C263.892 245.243 265.519 241.501 267.008 237.714L253.753 232.503ZM244.075 252.699L231.714 245.624C230.038 248.553 228.25 251.426 226.352 254.236L238.155 262.208L249.958 270.179C252.253 266.78 254.413 263.309 256.436 259.775L244.075 252.699ZM231.544 271.248L220.371 262.415C218.288 265.051 216.097 267.62 213.798 270.116L224.274 279.764L234.751 289.413C237.538 286.387 240.193 283.273 242.717 280.08L231.544 271.248ZM216.384 287.709L206.664 277.299C204.215 279.585 201.662 281.797 199.005 283.929L207.918 295.038L216.831 306.147C220.045 303.568 223.136 300.89 226.104 298.119L216.384 287.709ZM198.927 301.719L190.86 289.981C188.096 291.881 185.232 293.701 182.268 295.435L189.462 307.727L196.655 320.02C200.214 317.938 203.66 315.748 206.994 313.457L198.927 301.719ZM179.575 313.051L173.268 300.281C170.261 301.766 167.16 303.169 163.967 304.485L169.391 317.654L174.815 330.823C178.602 329.263 182.291 327.594 185.881 325.821L179.575 313.051ZM158.923 321.568L154.369 308.074C152.737 308.625 151.082 309.154 149.405 309.661L153.527 323.294L157.648 336.927C159.614 336.333 161.557 335.711 163.478 335.063L158.923 321.568ZM153.527 323.294L149.405 309.661L141.25 312.126L145.372 325.759L149.493 339.392L157.648 336.927L153.527 323.294ZM129.061 330.69L124.939 317.057L116.784 319.523L120.906 333.156L125.028 346.789L133.183 344.324L129.061 330.69ZM120.906 333.156L116.784 319.523C114.785 320.127 112.809 320.761 110.858 321.424L115.44 334.91L120.022 348.395C121.666 347.836 123.335 347.301 125.028 346.789L120.906 333.156ZM104.842 338.924L99.333 325.79C95.4839 327.404 91.7424 329.137 88.1093 330.982L94.5583 343.681L101.007 356.38C104.02 354.85 107.134 353.407 110.35 352.058L104.842 338.924ZM84.647 349.192L77.2577 337.016C73.6653 339.197 70.1964 341.493 66.8518 343.898L75.1667 355.462L83.4815 367.025C86.2246 365.052 89.0759 363.164 92.0364 361.368L84.647 349.192ZM66.2154 362.452L57.0091 351.585C53.8049 354.3 50.737 357.121 47.8056 360.039L57.8543 370.132L67.9029 380.226C70.2959 377.843 72.802 375.539 75.4218 373.319L66.2154 362.452ZM50.1392 378.459L39.3106 369.207C36.5897 372.392 34.0139 375.668 31.5831 379.024L43.1189 387.378L54.6547 395.731C56.6419 392.986 58.7462 390.31 60.9677 387.71L50.1392 378.459ZM36.8336 396.829L24.6703 389.419C22.4997 392.983 20.4788 396.618 18.6073 400.315L31.3145 406.748L44.0217 413.18C45.5598 410.142 47.2182 407.158 48.9969 404.239L36.8336 396.829ZM26.5843 417.067L13.4181 411.635C11.8337 415.476 10.4005 419.369 9.1178 423.304L22.6589 427.718L36.2 432.133C37.2608 428.879 38.4444 425.664 39.7506 422.498L26.5843 417.067ZM19.5481 438.636L5.71446 435.248C4.72949 439.269 3.89531 443.323 3.21144 447.398L17.2575 449.755L31.3037 452.112C31.8721 448.725 32.5648 445.359 33.3817 442.024L19.5481 438.636ZM15.7901 461.013L1.60929 459.689C1.22527 463.803 0.991337 467.929 0.907204 472.057L15.1467 472.348L29.3863 472.638C29.4564 469.198 29.6513 465.761 29.971 462.337L15.7901 461.013ZM15.3272 483.699L1.10407 484.442C1.31938 488.566 1.68435 492.682 2.19893 496.782L16.3305 495.008L30.4621 493.234C30.0337 489.821 29.7297 486.392 29.5503 482.957L15.3272 483.699ZM18.155 506.213L4.19094 509.016C5.00399 513.067 5.96658 517.092 7.07888 521.08L20.7978 517.254L34.5167 513.428C33.5943 510.12 32.7949 506.779 32.1191 503.411L18.155 506.213ZM24.2541 528.067L10.8601 532.91C12.2672 536.802 13.8235 540.647 15.5291 544.436L28.5161 538.589L41.5031 532.742C40.0969 529.619 38.8117 526.443 37.648 523.225L24.2541 528.067ZM33.5718 548.752L21.0755 555.585C23.0636 559.221 25.199 562.79 27.4818 566.283L39.4034 558.49L51.3251 550.698C49.4545 547.836 47.702 544.907 46.0682 541.919L33.5718 548.752ZM45.9859 567.737L34.7215 576.453C37.2577 579.731 39.9363 582.923 42.7571 586.02L53.2861 576.429L63.8151 566.838C61.5121 564.309 59.3238 561.701 57.2504 559.022L45.9859 567.737ZM61.2619 584.505L51.5392 594.913C54.5618 597.737 57.7178 600.459 61.0067 603.07L69.863 591.916L78.7193 580.762C76.0303 578.627 73.4522 576.403 70.9847 574.098L61.2619 584.505ZM79.0319 598.619L71.0888 610.44C74.5081 612.738 78.0482 614.923 81.7081 616.988L88.7067 604.583L95.7053 592.179C92.6893 590.477 89.7794 588.681 86.975 586.797L79.0319 598.619ZM98.7882 609.777L92.746 622.674C96.4359 624.403 100.231 626.016 104.129 627.507L109.218 614.205L114.306 600.902C111.049 599.656 107.89 598.313 104.83 596.88L98.7882 609.777ZM119.938 617.88L115.787 631.504C117.758 632.105 119.753 632.676 121.771 633.216L125.457 619.459L129.143 605.702C127.435 605.244 125.75 604.762 124.089 604.256L119.938 617.88ZM125.457 619.459L121.771 633.216L125.797 634.295L129.484 620.538L133.17 606.781L129.143 605.702L125.457 619.459ZM137.537 622.696L133.851 636.453L137.877 637.532L141.563 623.775L145.25 610.018L141.223 608.939L137.537 622.696ZM141.563 623.775L137.877 637.532C139.552 637.981 141.204 638.454 142.831 638.95L146.985 625.327L151.139 611.704C149.2 611.112 147.236 610.55 145.25 610.018L141.563 623.775ZM157.511 628.941L152.413 642.24C155.603 643.463 158.694 644.782 161.687 646.189L167.748 633.301L173.81 620.413C170.181 618.706 166.448 617.114 162.61 615.643L157.511 628.941ZM177.641 638.421L170.613 650.809C173.563 652.482 176.406 654.249 179.143 656.102L187.126 644.307L195.11 632.512C191.751 630.239 188.27 628.077 184.67 626.034L177.641 638.421ZM196.105 650.925L187.198 662.039C189.821 664.141 192.332 666.329 194.733 668.598L204.515 658.246L214.297 647.895C211.336 645.096 208.241 642.399 205.012 639.811L196.105 650.925ZM212.297 666.228L201.702 675.746C203.938 678.235 206.06 680.803 208.067 683.441L219.402 674.818L230.737 666.194C228.266 662.945 225.651 659.781 222.893 656.71L212.297 666.228ZM225.787 683.955L213.793 691.636C215.598 694.454 217.284 697.337 218.853 700.278L231.42 693.576L243.987 686.873C242.066 683.272 239.997 679.736 237.781 676.274L225.787 683.955ZM236.275 703.611L223.222 709.309C224.563 712.381 225.784 715.505 226.884 718.67L240.337 713.993L253.79 709.317C252.452 705.468 250.965 701.663 249.328 697.913L236.275 703.611ZM243.595 724.656L229.827 728.3C230.687 731.55 231.425 734.833 232.04 738.14L246.042 735.534L260.044 732.929C259.3 728.929 258.407 724.953 257.364 721.012L243.595 724.656ZM247.675 746.564L233.519 748.128C233.889 751.476 234.135 754.838 234.259 758.206L248.492 757.684L262.725 757.163C262.576 753.1 262.278 749.042 261.831 745L247.675 746.564ZM248.492 768.834L234.259 768.313C234.135 771.68 233.889 775.042 233.519 778.39L247.675 779.955L261.831 781.519C262.278 777.476 262.576 773.418 262.725 769.356L248.492 768.834ZM246.042 790.984L232.04 788.379C231.425 791.686 230.687 794.968 229.827 798.218L243.595 801.862L257.364 805.506C258.407 801.565 259.3 797.59 260.044 793.59L246.042 790.984ZM240.337 812.525L226.884 807.849C225.784 811.014 224.563 814.137 223.222 817.21L236.275 822.908L249.328 828.605C250.965 824.855 252.452 821.051 253.79 817.201L240.337 812.525ZM231.42 832.943L218.853 826.241C217.284 829.182 215.598 832.065 213.793 834.882L225.787 842.563L237.781 850.244C239.998 846.783 242.066 843.246 243.987 839.645L231.42 832.943ZM219.402 851.701L208.067 843.077C206.06 845.716 203.938 848.283 201.702 850.773L212.297 860.291L222.893 869.808C225.651 866.738 228.266 863.573 230.737 860.324L219.402 851.701ZM204.515 868.272L194.733 857.92C192.332 860.189 189.821 862.378 187.198 864.479L196.105 875.593L205.012 886.707C208.241 884.12 211.336 881.422 214.297 878.624L204.515 868.272ZM187.126 882.211L179.143 870.417C176.406 872.27 173.563 874.036 170.613 875.71L177.641 888.097L184.67 900.485C188.27 898.442 191.751 896.28 195.11 894.006L187.126 882.211ZM167.748 893.218L161.687 880.329C158.694 881.737 155.603 883.056 152.413 884.279L157.511 897.577L162.61 910.876C166.448 909.405 170.181 907.813 173.81 906.106L167.748 893.218ZM146.985 901.192L142.831 887.568C141.204 888.065 139.552 888.538 137.877 888.987L141.563 902.744L145.25 916.501C147.236 915.969 149.2 915.406 151.139 914.815L146.985 901.192ZM141.563 902.744L137.877 888.987C135.891 889.519 133.927 890.081 131.987 890.673L136.142 904.296L140.296 917.919C141.923 917.423 143.575 916.95 145.25 916.501L141.563 902.744ZM125.615 907.91L120.517 894.612C116.679 896.083 112.946 897.675 109.317 899.382L115.379 912.27L121.44 925.158C124.433 923.751 127.524 922.432 130.714 921.209L125.615 907.91ZM105.485 917.39L98.4573 905.003C94.8566 907.046 91.3763 909.208 88.0172 911.481L96.0005 923.276L103.984 935.071C106.721 933.218 109.564 931.451 112.514 929.778L105.485 917.39ZM87.0218 929.894L78.1151 918.78C74.8863 921.368 71.7911 924.065 68.83 926.864L78.6122 937.215L88.3943 947.567C90.7951 945.298 93.3064 943.11 95.9286 941.008L87.0218 929.894ZM70.8296 945.197L60.2342 935.679C57.4762 938.75 54.8613 941.914 52.3896 945.163L63.7248 953.787L75.06 962.41C77.067 959.772 79.1887 957.204 81.425 954.715L70.8296 945.197ZM57.3398 962.924L45.3459 955.243C43.1294 958.705 41.061 962.241 39.1404 965.842L51.7074 972.545L64.2743 979.247C65.8428 976.306 67.5293 973.423 69.3336 970.605L57.3398 962.924ZM46.8517 982.58L33.7986 976.882C32.1618 980.632 30.6746 984.437 29.3366 988.286L42.7896 992.962L56.2426 997.639C57.3427 994.474 58.5636 991.35 59.9049 988.278L46.8517 982.58ZM39.5318 1003.63L25.7633 999.981C24.7203 1003.92 23.8269 1007.9 23.0826 1011.9L37.0847 1014.5L51.0869 1017.11C51.7022 1013.8 52.4401 1010.52 53.3002 1007.27L39.5318 1003.63ZM35.452 1025.53L21.2957 1023.97C20.849 1028.01 20.5513 1032.07 20.4024 1036.13L34.6354 1036.65L48.8683 1037.17C48.9917 1033.81 49.2384 1030.45 49.6084 1027.1L35.452 1025.53ZM34.6354 1047.8L20.4024 1048.32C20.5513 1052.39 20.849 1056.45 21.2957 1060.49L35.452 1058.92L49.6084 1057.36C49.2384 1054.01 48.9917 1050.65 48.8683 1047.28L34.6354 1047.8ZM37.0847 1069.95L23.0826 1072.56C23.8269 1076.56 24.7203 1080.53 25.7633 1084.48L39.5318 1080.83L53.3002 1077.19C52.4401 1073.94 51.7022 1070.65 51.0869 1067.35L37.0847 1069.95ZM42.7896 1091.49L29.3366 1096.17C30.6746 1100.02 32.1618 1103.82 33.7986 1107.57L46.8517 1101.88L59.9049 1096.18C58.5636 1093.11 57.3427 1089.98 56.2426 1086.82L42.7896 1091.49ZM51.7074 1111.91L39.1404 1118.61C41.0611 1122.22 43.1295 1125.75 45.3459 1129.21L57.3398 1121.53L69.3337 1113.85C67.5294 1111.03 65.8428 1108.15 64.2744 1105.21L51.7074 1111.91ZM63.7248 1130.67L52.3896 1139.29C54.8614 1142.54 57.4762 1145.71 60.2342 1148.78L70.8296 1139.26L81.425 1129.74C79.1887 1127.25 77.0671 1124.68 75.06 1122.05L63.7248 1130.67ZM78.6122 1147.24L68.8301 1157.59C71.7912 1160.39 74.8864 1163.09 78.1152 1165.68L87.0219 1154.56L95.9286 1143.45C93.3064 1141.35 90.7952 1139.16 88.3944 1136.89L78.6122 1147.24ZM96.0006 1161.18L88.0173 1172.98C91.3764 1175.25 94.8567 1177.41 98.4574 1179.45L105.486 1167.07L112.514 1154.68C109.564 1153.01 106.721 1151.24 103.984 1149.39L96.0006 1161.18ZM115.379 1172.19L109.317 1185.08C112.946 1186.78 116.679 1188.37 120.517 1189.84L125.616 1176.55L130.714 1163.25C127.524 1162.02 124.433 1160.71 121.44 1159.3L115.379 1172.19ZM136.142 1180.16L131.988 1193.78C133.927 1194.38 135.891 1194.94 137.877 1195.47L141.564 1181.71L145.25 1167.96C143.575 1167.51 141.923 1167.03 140.296 1166.54L136.142 1180.16ZM141.564 1181.71L137.877 1195.47L143.3 1196.92L146.986 1183.17L150.672 1169.41L145.25 1167.96L141.564 1181.71ZM157.831 1186.07L154.145 1199.83L164.99 1202.73L168.676 1188.98L172.362 1175.22L161.517 1172.31L157.831 1186.07ZM179.521 1191.88L175.835 1205.64L186.68 1208.55L190.366 1194.79L194.053 1181.03L183.207 1178.13L179.521 1191.88ZM201.211 1197.7L197.525 1211.45L208.37 1214.36L212.056 1200.6L215.743 1186.84L204.898 1183.94L201.211 1197.7ZM222.902 1203.51L219.215 1217.26L230.06 1220.17L233.747 1206.41L237.433 1192.66L226.588 1189.75L222.902 1203.51ZM244.592 1209.32L240.905 1223.08L251.75 1225.98L255.437 1212.23L259.123 1198.47L248.278 1195.56L244.592 1209.32ZM266.282 1215.13L262.596 1228.89L273.441 1231.79L277.127 1218.04L280.813 1204.28L269.968 1201.37L266.282 1215.13ZM287.972 1220.94L284.286 1234.7L295.131 1237.61L298.817 1223.85L302.503 1210.09L291.658 1207.19L287.972 1220.94ZM309.662 1226.75L305.976 1240.51L316.821 1243.42L320.507 1229.66L324.193 1215.9L313.348 1213L309.662 1226.75ZM331.352 1232.57L327.666 1246.32L338.511 1249.23L342.197 1235.47L345.884 1221.72L335.038 1218.81L331.352 1232.57ZM353.042 1238.38L349.356 1252.14L360.201 1255.04L363.887 1241.28L367.574 1227.53L356.729 1224.62L353.042 1238.38ZM374.733 1244.19L371.046 1257.95L381.891 1260.85L385.578 1247.1L389.264 1233.34L378.419 1230.43L374.733 1244.19ZM396.423 1250L392.736 1263.76L403.581 1266.67L407.268 1252.91L410.954 1239.15L400.109 1236.24L396.423 1250ZM418.113 1255.81L414.427 1269.57L425.272 1272.48L428.958 1258.72L432.644 1244.96L421.799 1242.06L418.113 1255.81ZM439.803 1261.63L436.117 1275.38L446.962 1278.29L450.648 1264.53L454.334 1250.77L443.489 1247.87L439.803 1261.63ZM461.493 1267.44L457.807 1281.19L468.652 1284.1L472.338 1270.34L476.024 1256.59L465.179 1253.68L461.493 1267.44ZM483.183 1273.25L479.497 1287.01L490.342 1289.91L494.028 1276.16L497.714 1262.4L486.869 1259.49L483.183 1273.25ZM504.873 1279.06L501.187 1292.82L512.032 1295.72L515.718 1281.97L519.405 1268.21L508.559 1265.3L504.873 1279.06ZM526.563 1284.87L522.877 1298.63L533.722 1301.54L537.408 1287.78L541.095 1274.02L530.25 1271.12L526.563 1284.87ZM548.253 1290.69L544.567 1304.44L555.412 1307.35L559.099 1293.59L562.785 1279.83L551.94 1276.93L548.253 1290.69ZM569.944 1296.5L566.257 1310.25L577.102 1313.16L580.789 1299.4L584.475 1285.65L573.63 1282.74L569.944 1296.5ZM591.634 1302.31L587.947 1316.07L598.793 1318.97L602.479 1305.21L606.165 1291.46L595.32 1288.55L591.634 1302.31ZM613.324 1308.12L609.638 1321.88L620.483 1324.78L624.169 1311.03L627.855 1297.27L617.01 1294.36L613.324 1308.12ZM635.014 1313.93L631.328 1327.69L642.173 1330.6L645.859 1316.84L649.545 1303.08L638.7 1300.18L635.014 1313.93ZM656.704 1319.74L653.018 1333.5L658.44 1334.95L662.127 1321.2L665.813 1307.44L660.39 1305.99L656.704 1319.74Z" fill="url(#paint0_linear_2333_1604)"/>
<defs>
<linearGradient id="paint0_linear_2333_1604" x1="15.1143" y1="15" x2="720.414" y2="47.2701" gradientUnits="userSpaceOnUse">
<stop stop-color="#00C7BE"/>
<stop offset="1" stop-color="#0097C7"/>
</linearGradient>
</defs>
</svg>
