<svg width="279" height="639" viewBox="0 0 279 639" fill="none" xmlns="http://www.w3.org/2000/svg">
<path opacity="0.2" d="M127.839 1.07542C120.279 -1.09741 112.389 3.26963 110.217 10.8295C108.044 18.3893 112.411 26.2792 119.971 28.4521L123.905 14.7637L127.839 1.07542ZM123.905 14.7637L119.971 28.4521L126.719 30.3917L130.653 16.7033L134.587 3.015L127.839 1.07542L123.905 14.7637ZM144.15 20.5825L140.215 34.2708L146.964 36.2104L150.898 22.5221L154.832 8.83372L148.084 6.89416L144.15 20.5825ZM150.898 22.5221L146.964 36.2104C148.648 36.6943 150.309 37.2009 151.949 37.7293L156.318 24.1735L160.687 10.6177C158.758 9.99581 156.806 9.40097 154.832 8.83372L150.898 22.5221ZM166.838 27.9441L161.595 41.1864C164.807 42.458 167.926 43.8185 170.953 45.2623L177.084 32.4069L183.215 19.5514C179.601 17.8279 175.89 16.2097 172.081 14.7018L166.838 27.9441ZM187.043 37.5942L180.019 49.984C183.007 51.6776 185.895 53.4583 188.685 55.3199L196.59 43.4725L204.495 31.625C201.13 29.3799 197.654 27.2375 194.068 25.2043L187.043 37.5942ZM205.672 50.0293L196.912 61.2595C199.598 63.3546 202.181 65.5316 204.661 67.7843L214.237 57.2418L223.814 46.6994C220.809 43.9696 217.681 41.3336 214.432 38.7992L205.672 50.0293ZM222.236 65.0771L211.893 74.8683C214.226 77.3328 216.452 79.8716 218.571 82.4782L229.622 73.4934L240.673 64.5086C238.105 61.3507 235.407 58.2737 232.579 55.286L222.236 65.0771ZM236.356 82.4417L224.664 90.5745C226.601 93.3586 228.427 96.2069 230.144 99.1124L242.406 91.8681L254.669 84.6239C252.597 81.1177 250.391 77.6764 248.048 74.309L236.356 82.4417ZM247.748 101.718L234.988 108.046C236.497 111.089 237.894 114.183 239.177 117.321L252.36 111.93L265.542 106.538C264.002 102.771 262.323 99.0518 260.507 95.3897L247.748 101.718ZM256.229 122.444L242.697 126.886C243.759 130.12 244.706 133.39 245.538 136.689L259.348 133.205L273.158 129.722C272.164 125.782 271.032 121.872 269.762 118.002L256.229 122.444ZM261.71 144.157L247.692 146.677C248.295 150.032 248.782 153.408 249.154 156.798L263.311 155.246L277.469 153.694C277.027 149.659 276.446 145.637 275.728 141.638L261.71 144.157ZM264.151 166.418L249.921 167.001C250.06 170.41 250.084 173.824 249.991 177.234L264.228 177.622L278.465 178.009C278.576 173.952 278.548 169.891 278.382 165.836L264.151 166.418ZM263.542 188.805L249.364 187.447C249.039 190.841 248.598 194.224 248.041 197.587L262.092 199.914L276.143 202.241C276.807 198.232 277.332 194.203 277.719 190.162L263.542 188.805ZM259.881 210.898L246.024 207.604C245.237 210.914 244.335 214.197 243.319 217.444L256.91 221.7L270.502 225.956C271.719 222.069 272.797 218.144 273.737 214.191L259.881 210.898ZM253.185 232.267L239.93 227.057C238.69 230.212 237.336 233.325 235.868 236.389L248.713 242.541L261.559 248.694C263.324 245.007 264.952 241.265 266.44 237.478L253.185 232.267ZM243.508 252.463L231.147 245.388C229.47 248.316 227.683 251.189 225.785 254L237.587 261.972L249.39 269.943C251.686 266.544 253.845 263.073 255.868 259.538L243.508 252.463ZM230.977 271.011L219.804 262.179C217.72 264.814 215.529 267.384 213.23 269.88L223.707 279.528L234.183 289.177C236.97 286.15 239.626 283.037 242.15 279.844L230.977 271.011ZM215.817 287.472L206.097 277.062C203.648 279.349 201.095 281.561 198.438 283.693L207.351 294.802L216.264 305.911C219.478 303.332 222.569 300.653 225.537 297.882L215.817 287.472ZM198.36 301.483L190.293 289.745C187.529 291.644 184.665 293.464 181.701 295.199L188.895 307.491L196.088 319.784C199.646 317.701 203.093 315.511 206.426 313.22L198.36 301.483ZM179.007 312.815L172.701 300.044C169.694 301.53 166.593 302.933 163.399 304.248L168.824 317.417L174.248 330.587C178.035 329.027 181.724 327.358 185.314 325.585L179.007 312.815ZM158.356 321.332L153.802 307.837C152.169 308.388 150.515 308.918 148.838 309.425L152.959 323.058L157.081 336.691C159.047 336.096 160.99 335.475 162.911 334.827L158.356 321.332ZM152.959 323.058L148.838 309.425L140.682 311.89L144.804 325.523L148.926 339.156L157.081 336.691L152.959 323.058ZM128.494 330.454L124.372 316.821L116.217 319.287L120.338 332.92L124.46 346.553L132.615 344.087L128.494 330.454ZM120.338 332.92L116.217 319.287C114.217 319.891 112.242 320.525 110.291 321.188L114.873 334.674L119.454 348.159C121.099 347.6 122.767 347.065 124.46 346.553L120.338 332.92ZM104.274 338.688L98.7657 325.554C94.9166 327.168 91.1751 328.901 87.542 330.746L93.991 343.445L100.44 356.143C103.453 354.613 106.567 353.171 109.783 351.822L104.274 338.688ZM84.0797 348.956L76.6903 336.78C73.0979 338.961 69.6291 341.257 66.2845 343.662L74.5993 355.225L82.9142 366.789C85.6573 364.816 88.5086 362.928 91.469 361.132L84.0797 348.956ZM65.6481 362.216L56.4418 351.349C53.2375 354.064 50.1696 356.885 47.2383 359.803L57.2869 369.896L67.3355 379.989C69.7286 377.607 72.2347 375.302 74.8545 373.083L65.6481 362.216ZM49.5718 378.222L38.7433 368.971C36.0223 372.156 33.4465 375.431 31.0158 378.788L42.5516 387.141L54.0873 395.495C56.0745 392.75 58.1788 390.074 60.4004 387.474L49.5718 378.222ZM36.2663 396.593L24.103 389.183C21.9323 392.746 19.9115 396.382 18.0399 400.079L30.7472 406.512L43.4544 412.944C44.9924 409.905 46.6509 406.922 48.4296 404.002L36.2663 396.593ZM26.017 416.83L12.8508 411.399C11.2664 415.24 9.83312 419.133 8.55044 423.067L22.0916 427.482L35.6327 431.896C36.6934 428.643 37.8771 425.428 39.1833 422.262L26.017 416.83ZM18.9807 438.4L5.14712 435.011C4.16213 439.033 3.32797 443.087 2.6441 447.162L16.6902 449.519L30.7363 451.876C31.3047 448.489 31.9975 445.123 32.8144 441.788L18.9807 438.4ZM15.2228 460.777L1.04193 459.453C0.657928 463.567 0.423981 467.693 0.339844 471.821L14.5794 472.111L28.819 472.402C28.8891 468.962 29.0839 465.525 29.4036 462.1L15.2228 460.777ZM14.7599 483.463L0.536743 484.206C0.752045 488.329 1.117 492.446 1.63159 496.546L15.7632 494.772L29.8948 492.998C29.4664 489.585 29.1624 486.156 28.983 482.721L14.7599 483.463ZM17.5877 505.977L3.62359 508.78C4.43664 512.831 5.39922 516.856 6.51153 520.844L20.2305 517.018L33.9494 513.192C33.027 509.884 32.2276 506.542 31.5518 503.175L17.5877 505.977ZM23.6868 527.831L10.2928 532.674C11.6999 536.566 13.2562 540.411 14.9618 544.2L27.9488 538.353L40.9358 532.506C39.5296 529.382 38.2444 526.207 37.0807 522.989L23.6868 527.831ZM33.0045 548.516L20.5081 555.349C22.4962 558.985 24.6316 562.554 26.9145 566.047L38.8361 558.254L50.7577 550.462C48.8871 547.6 47.1347 544.671 45.5008 541.683L33.0045 548.516ZM45.4186 567.501L34.1542 576.217C36.6904 579.495 39.369 582.687 42.1898 585.784L52.7188 576.192L63.2478 566.601C60.9448 564.073 58.7565 561.465 56.6831 558.786L45.4186 567.501ZM60.6946 584.269L50.9719 594.677C53.9945 597.5 57.1505 600.223 60.4394 602.834L69.2957 591.68L78.152 580.526C75.463 578.391 72.8849 576.167 70.4174 573.862L60.6946 584.269ZM78.4646 598.382L70.5214 610.204C73.9408 612.502 77.4809 614.687 81.1408 616.752L88.1394 604.347L95.138 591.943C92.122 590.241 89.2121 588.445 86.4077 586.561L78.4646 598.382ZM98.2208 609.541L92.1786 622.438C95.8685 624.167 99.6633 625.78 103.562 627.271L108.65 613.968L113.739 600.666C110.481 599.42 107.323 598.077 104.263 596.643L98.2208 609.541ZM119.371 617.644L115.22 631.268C117.191 631.868 119.185 632.439 121.203 632.98L124.89 619.223L128.576 605.466C126.867 605.008 125.183 604.526 123.522 604.02L119.371 617.644ZM124.89 619.223L121.203 632.98L125.23 634.059L128.916 620.302L132.602 606.545L128.576 605.466L124.89 619.223ZM136.969 622.46L133.283 636.217L137.31 637.296L140.996 623.539L144.682 609.781L140.656 608.703L136.969 622.46ZM140.996 623.539L137.31 637.296C138.985 637.745 140.636 638.218 142.264 638.714L146.418 625.091L150.572 611.467C148.632 610.876 146.669 610.314 144.682 609.781L140.996 623.539Z" fill="url(#paint0_linear_1743_4175)"/>
<defs>
<linearGradient id="paint0_linear_1743_4175" x1="-379.567" y1="14.7637" x2="751.595" y2="98.0441" gradientUnits="userSpaceOnUse">
<stop stop-color="#00C7BE"/>
<stop offset="1" stop-color="#0097C7"/>
</linearGradient>
</defs>
</svg>
