<svg width="66" height="80" viewBox="0 0 66 80" fill="none" xmlns="http://www.w3.org/2000/svg">
<path d="M7.48843 80.0001C6.17998 80.0001 5.02181 79.6906 4.01395 79.0715C3.00608 78.4525 2.21923 77.5947 1.65342 76.4982C1.0876 75.3839 0.804686 74.0928 0.804686 72.6248C0.804686 71.1392 1.0876 69.8481 1.65342 68.7515C2.21923 67.655 3.00608 66.7972 4.01395 66.1782C5.02181 65.5591 6.17998 65.2496 7.48843 65.2496C9.06212 65.2496 10.3883 65.6652 11.4669 66.4965C12.4752 67.2611 13.1693 68.3024 13.5494 69.6205C13.6052 69.8141 13.485 70.0117 13.2899 70.0612L10.565 70.7531C10.3623 70.8046 10.1592 70.6766 10.101 70.4757C9.91455 69.8317 9.62718 69.3454 9.23893 69.0168C8.7792 68.61 8.17803 68.4066 7.43539 68.4066C6.5513 68.4066 5.82633 68.7604 5.26052 69.4678C4.71238 70.1576 4.43831 71.2099 4.43831 72.6248C4.43831 74.0398 4.71238 75.1009 5.26052 75.8084C5.82633 76.4982 6.5513 76.8431 7.43539 76.8431C8.17803 76.8431 8.78805 76.6485 9.26546 76.2594C9.66748 75.9169 9.95664 75.4301 10.133 74.7991C10.189 74.5986 10.3882 74.4673 10.591 74.5138L13.3335 75.142C13.5327 75.1876 13.6576 75.3872 13.6013 75.5837C13.2197 76.9165 12.5171 77.973 11.4934 78.7532C10.3971 79.5844 9.06212 80.0001 7.48843 80.0001Z" fill="white"/>
<path d="M23.8486 79.6552C23.6451 79.6552 23.4802 79.4902 23.4802 79.2866V71.5371C23.4802 70.4936 23.2238 69.7066 22.7111 69.176C22.1983 68.6454 21.5617 68.3801 20.8014 68.3801C20.0411 68.3801 19.4046 68.6454 18.8918 69.176C18.4412 69.6422 18.1886 70.3065 18.1339 71.1687C18.1211 71.3719 17.9577 71.5371 17.7542 71.5371H17.7218C17.5184 71.5371 17.3528 71.3721 17.3588 71.1686C17.3934 69.9998 17.595 68.9907 17.9635 68.1413C18.3878 67.204 18.9625 66.4877 19.6875 65.9924C20.4301 65.4972 21.2877 65.2496 22.2602 65.2496C23.1796 65.2496 23.993 65.4795 24.7003 65.9394C25.4252 66.3815 25.991 67.0183 26.3977 67.8495C26.8044 68.6631 27.0077 69.6535 27.0077 70.8208V79.2866C27.0077 79.4902 26.8428 79.6552 26.6394 79.6552H23.8486ZM14.9635 79.6552C14.76 79.6552 14.5951 79.4902 14.5951 79.2866V61.0551C14.5951 60.8515 14.76 60.6865 14.9635 60.6865H17.7542C17.9577 60.6865 18.1226 60.8515 18.1226 61.0551V79.2866C18.1226 79.4902 17.9577 79.6552 17.7542 79.6552H14.9635Z" fill="white"/>
<path d="M34.6471 80.0001C33.3564 80.0001 32.207 79.6906 31.1992 79.0715C30.1913 78.4525 29.4045 77.5947 28.8386 76.4982C28.2905 75.3839 28.0164 74.0928 28.0164 72.6248C28.0164 71.1215 28.2993 69.8215 28.8652 68.725C29.431 67.6107 30.2178 66.753 31.2257 66.1516C32.2336 65.5503 33.3829 65.2496 34.6737 65.2496C35.9644 65.2496 37.1049 65.5503 38.0951 66.1516C39.0853 66.753 39.8544 67.6019 40.4026 68.6985C40.9684 69.795 41.2513 71.1038 41.2513 72.6248C41.2513 72.8017 41.2425 72.9697 41.2248 73.1289C41.2248 73.181 41.2248 73.235 41.2248 73.2909C41.2248 73.4945 41.0598 73.6595 40.8564 73.6595H30.5862C30.3828 73.6595 30.2178 73.4945 30.2178 73.2909V71.5608C30.2178 71.3573 30.3828 71.1922 30.5862 71.1922H37.9829C38.2553 71.1922 38.4163 71.4978 38.2622 71.7226C38.0741 71.9973 37.6273 71.864 37.5949 71.5326C37.4956 70.5193 37.2469 69.7603 36.8485 69.2556C36.3358 68.5658 35.6108 68.2209 34.6737 68.2209C33.7719 68.2209 33.0381 68.5658 32.4723 69.2556C31.9241 69.9277 31.6501 71.0508 31.6501 72.6248C31.6501 74.0928 31.933 75.1805 32.4988 75.888C33.0646 76.5778 33.8338 76.9226 34.8063 76.9226C35.4605 76.9226 36.0263 76.7723 36.5037 76.4716C36.8977 76.2235 37.2073 75.8611 37.4327 75.3842C37.5156 75.2087 37.7095 75.1073 37.8959 75.161L40.5191 75.9167C40.7173 75.9738 40.8312 76.1831 40.7574 76.3758C40.3595 77.4145 39.6754 78.26 38.7051 78.9124C37.6442 79.6375 36.2915 80.0001 34.6471 80.0001Z" fill="white"/>
<path d="M47.3926 80.0001C45.6951 80.0001 44.3336 79.6729 43.3081 79.0185C42.3839 78.4022 41.757 77.5033 41.4276 76.3219C41.3762 76.1378 41.4852 75.9498 41.6673 75.892L44.2474 75.0737C44.4449 75.0111 44.6534 75.1244 44.726 75.3185C44.9548 75.9307 45.2779 76.3858 45.6951 76.6839C46.2079 77.0376 46.8533 77.2145 47.6313 77.2145C48.3562 77.2145 48.8955 77.1083 49.2492 76.8961C49.6028 76.6662 49.7796 76.339 49.7796 75.9145C49.7796 75.4724 49.5851 75.1275 49.1961 74.8799C48.8248 74.6322 48.3385 74.4289 47.7374 74.2697C47.1362 74.0928 46.4908 73.9159 45.8012 73.7391C45.1293 73.5445 44.4928 73.2969 43.8916 72.9963C43.2904 72.6779 42.7953 72.2534 42.4063 71.7228C42.0173 71.1746 41.8228 70.4583 41.8228 69.5739C41.8228 68.3182 42.3091 67.2836 43.2816 66.47C44.2541 65.6564 45.6244 65.2496 47.3926 65.2496C48.9309 65.2496 50.1686 65.568 51.1058 66.2047C51.9675 66.7793 52.5988 67.5916 52.9996 68.6416C53.0723 68.8321 52.9638 69.0402 52.7695 69.1018L50.2795 69.8905C50.0897 69.9506 49.8882 69.8479 49.8085 69.6654C49.575 69.1304 49.2736 68.7374 48.9044 68.4862C48.48 68.1679 47.9053 68.0087 47.1804 68.0087C46.5085 68.0087 46.0134 68.1237 45.6951 68.3536C45.3768 68.5835 45.2177 68.8576 45.2177 69.176C45.2177 69.5474 45.4122 69.8481 45.8012 70.078C46.1902 70.2902 46.6941 70.4759 47.313 70.6351C47.9319 70.7766 48.5861 70.9446 49.2757 71.1392C49.9653 71.3337 50.6195 71.599 51.2384 71.9351C51.8572 72.2711 52.3612 72.731 52.7502 73.3146C53.1392 73.8806 53.3337 74.6322 53.3337 75.5696C53.3337 76.8784 52.8121 77.9484 51.7688 78.7797C50.7433 79.5933 49.2845 80.0001 47.3926 80.0001Z" fill="white"/>
<path d="M59.4314 80.0001C57.734 80.0001 56.3725 79.6729 55.3469 79.0185C54.4227 78.4022 53.7959 77.5033 53.4664 76.3219C53.4151 76.1378 53.524 75.9498 53.7061 75.892L56.2862 75.0737C56.4837 75.0111 56.6923 75.1244 56.7648 75.3185C56.9937 75.9307 57.3167 76.3858 57.734 76.6839C58.2467 77.0376 58.8921 77.2145 59.6701 77.2145C60.3951 77.2145 60.9344 77.1083 61.288 76.8961C61.6417 76.6662 61.8185 76.339 61.8185 75.9145C61.8185 75.4724 61.624 75.1275 61.235 74.8799C60.8637 74.6322 60.3774 74.4289 59.7762 74.2697C59.175 74.0928 58.5296 73.9159 57.8401 73.7391C57.1681 73.5445 56.5316 73.2969 55.9304 72.9963C55.3292 72.6779 54.8341 72.2534 54.4451 71.7228C54.0561 71.1746 53.8616 70.4583 53.8616 69.5739C53.8616 68.3182 54.3479 67.2836 55.3204 66.47C56.2929 65.6564 57.6632 65.2496 59.4314 65.2496C60.9697 65.2496 62.2075 65.568 63.1446 66.2047C64.0063 66.7793 64.6376 67.5916 65.0385 68.6416C65.1112 68.8321 65.0027 69.0402 64.8084 69.1018L62.3184 69.8905C62.1285 69.9506 61.9271 69.8479 61.8474 69.6654C61.6138 69.1304 61.3125 68.7374 60.9432 68.4862C60.5189 68.1679 59.9442 68.0087 59.2192 68.0087C58.5473 68.0087 58.0522 68.1237 57.734 68.3536C57.4157 68.5835 57.2566 68.8576 57.2566 69.176C57.2566 69.5474 57.4511 69.8481 57.8401 70.078C58.2291 70.2902 58.733 70.4759 59.3519 70.6351C59.9707 70.7766 60.6249 70.9446 61.3145 71.1392C62.0041 71.3337 62.6584 71.599 63.2772 71.9351C63.8961 72.2711 64.4 72.731 64.789 73.3146C65.178 73.8806 65.3725 74.6322 65.3725 75.5696C65.3725 76.8784 64.8509 77.9484 63.8077 78.7797C62.7821 79.5933 61.3234 80.0001 59.4314 80.0001Z" fill="white"/>
<path d="M21.3295 59.6237C21.1662 59.6237 21.0223 59.5159 20.9762 59.359L17.0558 46.0251C16.9863 45.7888 17.1632 45.552 17.4092 45.552H20.4016C20.5676 45.552 20.7131 45.6632 20.7569 45.8235L24.4008 59.1575C24.465 59.3922 24.2885 59.6237 24.0455 59.6237H21.3295ZM23.7857 59.6237C23.5443 59.6237 23.3682 59.395 23.4294 59.1612L26.9226 45.8273C26.965 45.6651 27.1114 45.552 27.2789 45.552H30.1886C30.4346 45.552 30.6115 45.7888 30.542 46.0251L26.6216 59.359C26.5755 59.5159 26.4316 59.6237 26.2683 59.6237H23.7857Z" fill="white"/>
<path d="M36.9731 59.9688C35.6825 59.9688 34.5332 59.6591 33.5254 59.0396C32.5176 58.4201 31.7309 57.5616 31.1651 56.4642C30.617 55.3491 30.3429 54.057 30.3429 52.5879C30.3429 51.0833 30.6258 49.7824 31.1916 48.685C31.7574 47.5699 32.5442 46.7114 33.552 46.1096C34.5597 45.5078 35.709 45.2069 36.9997 45.2069C38.2903 45.2069 39.4307 45.5078 40.4209 46.1096C41.411 46.7114 42.1801 47.561 42.7282 48.6584C43.294 49.7558 43.5768 51.0656 43.5768 52.5879C43.5768 52.7649 43.568 52.933 43.5503 53.0923C43.5503 53.1445 43.5503 53.1985 43.5503 53.2545C43.5503 53.4582 43.3854 53.6233 43.182 53.6233H32.9125C32.7091 53.6233 32.5442 53.4582 32.5442 53.2545V51.523C32.5442 51.3193 32.7091 51.1541 32.9125 51.1541H40.3087C40.5811 51.1541 40.742 51.4599 40.588 51.6849C40.3998 51.9598 39.9531 51.8264 39.9206 51.4947C39.8214 50.4806 39.5727 49.721 39.1744 49.216C38.6616 48.5257 37.9367 48.1805 36.9997 48.1805C36.098 48.1805 35.3642 48.5257 34.7984 49.216C34.2503 49.8886 33.9763 51.0125 33.9763 52.5879C33.9763 54.057 34.2592 55.1455 34.825 55.8535C35.3907 56.5438 36.1598 56.889 37.1323 56.889C37.7865 56.889 38.3522 56.7385 38.8296 56.4376C39.2235 56.1894 39.5331 55.8266 39.7585 55.3493C39.8414 55.1737 40.0353 55.0722 40.2217 55.126L42.8447 55.8822C43.0429 55.9394 43.1568 56.1489 43.083 56.3417C42.6851 57.3812 42.001 58.2274 41.0308 58.8803C39.97 59.606 38.6174 59.9688 36.9731 59.9688Z" fill="white"/>
<path d="M44.941 59.6237C44.7375 59.6237 44.5726 59.4585 44.5726 59.2548V45.9209C44.5726 45.7172 44.7375 45.552 44.941 45.552H47.7315C47.935 45.552 48.0999 45.7172 48.0999 45.9209V59.2548C48.0999 59.4585 47.935 59.6237 47.7315 59.6237H44.941ZM48.0155 52.3343C47.819 52.5474 47.468 52.408 47.4803 52.1182C47.5322 50.8984 47.7033 49.8159 47.9938 48.8708C48.3474 47.7026 48.8955 46.7999 49.6381 46.1627C50.3807 45.5255 50.9582 45.2069 52.1075 45.2069V48.8471C52.1075 49.0508 51.9426 49.216 51.7391 49.216H50.9376C50.0536 49.216 49.3552 49.4461 48.8425 49.9063C48.3661 50.3321 48.1189 51.0693 48.101 52.1179C48.0996 52.198 48.0698 52.2754 48.0155 52.3343Z" fill="white"/>
<path d="M55.5295 64.6151C55.0167 64.6151 54.5394 64.5797 54.0973 64.5089C53.7663 64.4675 53.4353 64.4099 53.1043 64.3362C52.9393 64.2994 52.8243 64.1512 52.8243 63.982V61.5829C52.8243 61.3429 53.0496 61.1668 53.2838 61.2173C53.5019 61.2643 53.7289 61.3084 53.9647 61.3494C54.3714 61.4379 54.7869 61.4822 55.2112 61.4822C56.0245 61.4822 56.6522 61.3317 57.0942 61.0308C57.5539 60.7476 57.8722 60.2786 58.049 59.6237L61.6894 45.8267C61.7321 45.6648 61.8784 45.552 62.0456 45.552H64.9558C65.2018 45.552 65.3787 45.7888 65.3092 46.0251L61.311 59.6237C60.9221 60.9512 60.4447 61.9778 59.8789 62.7035C59.3308 63.4292 58.6943 63.9248 57.9694 64.1903C57.2445 64.4735 56.4312 64.6151 55.5295 64.6151ZM56.0976 59.6237C55.9338 59.6237 55.7897 59.5154 55.7439 59.358L51.765 45.6806C51.7018 45.4635 51.8468 45.2412 52.0707 45.2117L52.1075 45.2069H55.1185C55.2849 45.2069 55.4306 45.3186 55.4741 45.4794L59.1698 59.1585C59.2331 59.393 59.0568 59.6237 58.8142 59.6237H56.0976Z" fill="white"/>
<path d="M0 9.09516C0 8.47781 0.674733 8.09758 1.20282 8.41735L31.0465 26.488C32.0547 27.0985 33.3183 27.0991 34.3271 26.4898L64.1705 8.46251C64.6986 8.1435 65.3726 8.52378 65.3726 9.14076V19.4476C65.3726 19.98 65.1052 20.4769 64.6609 20.7702L34.4325 40.7254C33.3733 41.4246 31.9992 41.4246 30.9401 40.7254L0.711684 20.7702C0.26735 20.4769 0 19.98 0 19.4476V9.09516Z" fill="url(#paint0_linear_1_716)"/>
<path d="M20.6289 16.8579L31.0462 23.193C32.0566 23.8075 33.325 23.8083 34.3363 23.1953L45.002 16.7292L32.6906 10.3942L43.2949 4.88921L55.2665 10.5325L63.3144 5.66777C63.8467 5.346 63.7857 4.55527 63.2103 4.31898L52.6934 0L43.2949 4.88921L33.0201 0.0394291L22.2092 4.94809L12.6863 0L2.35487 4.39207C1.78679 4.63357 1.73068 5.41674 2.25853 5.73676L10.2013 10.5523L22.2092 4.94809L32.6906 10.3942L20.6289 16.8579Z" fill="white"/>
<defs>
<linearGradient id="paint0_linear_1_716" x1="0" y1="8.30154" x2="69.0904" y2="20.9636" gradientUnits="userSpaceOnUse">
<stop stop-color="#00C7BE"/>
<stop offset="1" stop-color="#0097C7"/>
</linearGradient>
</defs>
</svg>
